<svg width="120" height="120" viewBox="0 0 120 120" fill="none" xmlns="http://www.w3.org/2000/svg">
<path d="M35.9671 99.5768L25.1902 107.071C24.1326 107.806 22.6788 107.545 21.9432 106.487L4.4177 81.2835C3.6821 80.2259 3.94362 78.7721 5.00128 78.0365L15.7782 70.5427C16.8359 69.8071 18.2897 70.0686 19.0253 71.1263L36.5501 96.3298C37.2857 97.3874 37.0242 98.8412 35.9665 99.5768H35.9671Z" stroke="#282828" stroke-width="2.5" stroke-miterlimit="10" stroke-linecap="round"/>
<path d="M20.751 72.7676L35.8442 63.0805C40.8169 59.9005 43.2079 59.0367 48.8672 60.7127L79.4691 70.7405C83.7629 72.0127 86.2331 75.2649 85.0074 79.5722C83.7642 83.9413 79.196 84.8057 74.8391 83.5213L59.087 78.4179" stroke="#282828" stroke-width="2.5" stroke-miterlimit="10" stroke-linecap="round"/>
<path d="M35.3467 94.5992L39.7931 92.0123C41.1973 91.2136 42.8701 91.0346 44.4115 91.5183L73.246 99.9004C76.1162 100.685 79.1842 100.199 81.6718 98.567L112.619 77.5793C115.778 75.5065 116.631 71.2508 114.515 68.1209C112.395 64.9866 108.118 64.1956 105.018 66.3657L85.4251 79.5987" stroke="#282828" stroke-width="2.5" stroke-miterlimit="10" stroke-linecap="round"/>
<path d="M41.5859 54.7283C39.2297 50.5679 37.8848 45.7595 37.8848 40.6367C37.8848 24.8214 50.7055 12 66.5215 12C82.3374 12 95.1582 24.8208 95.1582 40.6367C95.1582 50.8584 89.8029 59.8285 81.7455 64.8959" stroke="#282828" stroke-width="2.5" stroke-miterlimit="10" stroke-linecap="round"/>
<path d="M60 29H73M60 34.8331H73M69.2087 50L60 40.6661H63.25C70.4721 40.6661 70.4721 29 63.25 29" stroke="#282828" stroke-width="2.5" stroke-linecap="round" stroke-linejoin="round"/>
</svg>
