<svg width="93" height="113" viewBox="0 0 93 113" fill="none" xmlns="http://www.w3.org/2000/svg">
<path d="M28.0469 15.0483V11.4424C28.0469 5.96727 32.4851 1.52673 37.9625 1.52673H81.0846C86.5597 1.52673 91.0002 5.96495 91.0002 11.4424V101.018C91.0002 106.493 86.562 110.934 81.0846 110.934H37.9625C32.4874 110.934 28.0469 106.495 28.0469 101.018V99.0651" stroke="#282828" stroke-width="2.53" stroke-linecap="round" stroke-linejoin="round"/>
<path d="M60.5167 101.23H58.5312" stroke="#282828" stroke-width="2.53" stroke-linecap="round" stroke-linejoin="round"/>
<path d="M74.4176 7.80164V8.4712C74.4176 10.6636 72.6414 12.4398 70.449 12.4398H48.3905C46.1981 12.4398 44.4219 10.6636 44.4219 8.4712V7.80164" stroke="#282828" stroke-width="2.53" stroke-linecap="round" stroke-linejoin="round"/>
<path d="M76.5039 20.3373L82.1557 25.9891" stroke="#282828" stroke-width="2.53" stroke-linecap="round" stroke-linejoin="round"/>
<path d="M66.6016 21.3883L80.8206 35.6073" stroke="#282828" stroke-width="2.53" stroke-linecap="round" stroke-linejoin="round"/>
<path d="M16.4922 55.4965L25.8778 64.8821L41.2197 49.5402" stroke="#282828" stroke-width="2.53" stroke-linecap="round" stroke-linejoin="round"/>
<path d="M28.0472 23.2552C28.0472 23.2552 13.5468 34.5007 1.45508 34.5007V63.0085C1.45508 68.9347 3.87994 74.2656 7.94152 77.2671C12.1844 80.4033 24.8528 88.7567 25.3898 89.11L28.0472 90.8607L30.7045 89.11C31.2416 88.7567 43.9099 80.4033 48.1528 77.2671C52.2144 74.2656 54.6392 68.9347 54.6392 63.0085V34.5007C42.5475 34.5007 28.0472 23.2552 28.0472 23.2552Z" stroke="#282828" stroke-width="2.53" stroke-linecap="round" stroke-linejoin="round"/>
</svg>
