<svg width="120" height="120" viewBox="0 0 120 120" fill="none" xmlns="http://www.w3.org/2000/svg">
<path d="M42.3496 94.915H48.3315V100.33C48.3315 100.976 47.8072 101.5 47.1608 101.5H43.5203C42.874 101.5 42.3496 100.976 42.3496 100.33V94.915Z" stroke="#282828" stroke-width="2.5" stroke-linecap="round" stroke-linejoin="round"/>
<path d="M71.5117 94.915H77.4936V100.33C77.4936 100.976 76.9693 101.5 76.3229 101.5H72.6824C72.0361 101.5 71.5117 100.976 71.5117 100.33V94.915Z" stroke="#282828" stroke-width="2.5" stroke-linecap="round" stroke-linejoin="round"/>
<path d="M77.7855 80.7144H42.0737C40.7511 83.8305 40.0684 87.1821 40.0684 90.5679V91.0923C40.0684 93.1812 41.7613 94.8741 43.8501 94.8741H76.007C78.0958 94.8741 79.7887 93.1812 79.7887 91.0923V90.5679C79.7887 87.1821 79.106 83.8305 77.7833 80.7144H77.7855Z" stroke="#282828" stroke-width="2.5" stroke-linecap="round" stroke-linejoin="round"/>
<path d="M77.784 80.7146H42.0723L44.6298 72.4555C45.3661 70.0777 47.5662 68.4575 50.0553 68.4575H69.801C72.2901 68.4575 74.4881 70.0777 75.2264 72.4555L77.784 80.7146Z" stroke="#282828" stroke-width="2.5" stroke-linecap="round" stroke-linejoin="round"/>
<path d="M89.0859 30.98H115.832" stroke="#282828" stroke-width="2.5" stroke-linecap="round" stroke-linejoin="round"/>
<path d="M89.0859 23.4575H115.832" stroke="#282828" stroke-width="2.5" stroke-linecap="round" stroke-linejoin="round"/>
<path d="M4 30.98H30.8106" stroke="#282828" stroke-width="2.5" stroke-linecap="round" stroke-linejoin="round"/>
<path d="M4 23.4575H30.8106" stroke="#282828" stroke-width="2.5" stroke-linecap="round" stroke-linejoin="round"/>
<path d="M104.031 30.98V54.1607" stroke="#282828" stroke-width="2.5" stroke-linecap="round" stroke-linejoin="round"/>
<path d="M115.845 73.6729H92.4629V101.5H115.845V73.6729Z" stroke="#282828" stroke-width="2.5" stroke-linecap="round" stroke-linejoin="round"/>
<path d="M115.845 54.1606H92.4629V73.673H115.845V54.1606Z" stroke="#282828" stroke-width="2.5" stroke-linecap="round" stroke-linejoin="round"/>
<path d="M92.4629 73.6728L103.913 85.123L115.605 73.4331" stroke="#282828" stroke-width="2.5" stroke-linecap="round" stroke-linejoin="round"/>
<path d="M92.4629 85.123L103.913 96.5753L115.605 84.8833" stroke="#282828" stroke-width="2.5" stroke-linecap="round" stroke-linejoin="round"/>
<path d="M15.5625 30.98V54.1607" stroke="#282828" stroke-width="2.5" stroke-linecap="round" stroke-linejoin="round"/>
<path d="M27.3936 73.6729H4.01172V101.5H27.3936V73.6729Z" stroke="#282828" stroke-width="2.5" stroke-linecap="round" stroke-linejoin="round"/>
<path d="M27.3936 54.1606H4.01172V73.673H27.3936V54.1606Z" stroke="#282828" stroke-width="2.5" stroke-linecap="round" stroke-linejoin="round"/>
<path d="M4.01172 73.6728L15.464 85.123L27.1539 73.4331" stroke="#282828" stroke-width="2.5" stroke-linecap="round" stroke-linejoin="round"/>
<path d="M4.01172 85.123L15.464 96.5753L27.1539 84.8833" stroke="#282828" stroke-width="2.5" stroke-linecap="round" stroke-linejoin="round"/>
<path d="M89.0578 19H31.0215V31.2769H89.0578V19Z" stroke="#282828" stroke-width="2.5" stroke-linecap="round" stroke-linejoin="round"/>
</svg>
