<svg width="120" height="120" viewBox="0 0 120 120" fill="none" xmlns="http://www.w3.org/2000/svg">
<path d="M49.2609 90.9832C23.7117 90.9832 3 76.9285 3 59.5917C3 45.8549 16.0015 34.1793 34.11 29.9224" stroke="#282828" stroke-width="2.5" stroke-linecap="round" stroke-linejoin="round"/>
<path d="M34.1113 41.4292C37.4332 46.757 39.3486 53.0485 39.3486 59.7894C39.3486 66.5303 37.5491 72.4277 34.4215 77.6473" stroke="#282828" stroke-width="2.5" stroke-linecap="round" stroke-linejoin="round"/>
<path d="M26.8604 46.0757C29.3211 50.061 30.7375 54.7607 30.7375 59.7893C30.7375 64.8179 29.437 69.1211 27.1662 72.9972" stroke="#282828" stroke-width="2.5" stroke-linecap="round" stroke-linejoin="round"/>
<path d="M19.7578 50.6274C21.374 53.3024 22.3025 56.441 22.3025 59.7904C22.3025 62.929 21.4866 65.8811 20.057 68.4401" stroke="#282828" stroke-width="2.5" stroke-linecap="round" stroke-linejoin="round"/>
<path d="M90.6875 95.4048L91.9979 100.95" stroke="#282828" stroke-width="2.5" stroke-linecap="round" stroke-linejoin="round"/>
<path d="M90.6875 95.4043C88.9819 95.0533 87.1769 94.3909 85.4094 93.4183C82.7179 91.9356 79.3674 89.083 78.3672 86.6675" stroke="#282828" stroke-width="2.5" stroke-linecap="round" stroke-linejoin="round"/>
<path d="M117 93.528L111.411 74.236C110.003 69.3785 106.724 65.2795 102.301 62.843L94.873 58.9062" stroke="#282828" stroke-width="2.5" stroke-linecap="round" stroke-linejoin="round"/>
<path d="M101.537 90.2415C99.1481 90.3343 96.6156 89.7801 94.5357 88.5999C92.6777 87.5456 91.0725 85.8566 90.3295 83.8274C89.5612 81.7288 89.2951 79.8421 87.5729 78.1961C86.64 77.3052 85.5173 76.6373 84.5447 75.7894C82.6724 74.1577 81.9581 71.4795 82.4769 69.0883C82.849 67.3705 84.1749 64.7596 86.2835 66.0766L91.0029 69.0221L104.678 77.5547" stroke="#282828" stroke-width="2.5" stroke-linecap="round" stroke-linejoin="round"/>
<path d="M77.0575 31.5728C73.1439 29.887 68.9775 29.4675 64.98 30.6256C61.1073 31.7472 57.8925 34.2069 55.5068 37.553" stroke="#282828" stroke-width="2.5" stroke-linecap="round" stroke-linejoin="round"/>
<path d="M75.9475 38.05C73.0252 36.808 69.9176 36.5055 66.9346 37.3699C64.0764 38.1979 61.6952 39.9919 59.9111 42.4361" stroke="#282828" stroke-width="2.5" stroke-linecap="round" stroke-linejoin="round"/>
<path d="M74.8598 44.3952C72.9069 43.5882 70.8347 43.4017 68.8486 43.9768C66.9873 44.5156 65.4208 45.6615 64.2285 47.2225" stroke="#282828" stroke-width="2.5" stroke-linecap="round" stroke-linejoin="round"/>
<path d="M93.673 54.7517L84.4195 22.8115C83.5937 19.9599 80.4606 18.3624 77.4258 19.2412L48.6772 27.5696C45.6402 28.4495 43.8462 31.4744 44.6731 34.3259L59.8141 86.5892C60.3529 88.4494 61.8752 89.7774 63.7134 90.2268C64.6915 90.4696 65.7557 90.4641 66.81 90.1583L73.2771 88.2849" stroke="#282828" stroke-width="2.5" stroke-linecap="round" stroke-linejoin="round"/>
<path d="M93.6719 54.75L96.9209 65.9653" stroke="#282828" stroke-width="2.5" stroke-linecap="round" stroke-linejoin="round"/>
<path d="M71.9845 78.6736L66.6424 80.2622L63.6992 70.364L73.5974 67.4219" stroke="#282828" stroke-width="2.5" stroke-linecap="round" stroke-linejoin="round"/>
</svg>
