<svg width="120" height="120" viewBox="0 0 120 120" fill="none" xmlns="http://www.w3.org/2000/svg">
<path d="M108.756 23.5098H10.3264C6.48615 23.5098 3.37305 26.6229 3.37305 30.4631V89.0467C3.37305 92.8869 6.48615 96 10.3264 96H108.756C112.596 96 115.709 92.8869 115.709 89.0467V30.4631C115.709 26.6229 112.596 23.5098 108.756 23.5098Z" stroke="#282828" stroke-width="2.5" stroke-linecap="round" stroke-linejoin="round"/>
<path d="M74.4238 40.5049H103.132" stroke="#282828" stroke-width="2.5" stroke-linecap="round" stroke-linejoin="round"/>
<path d="M74.4238 53.3701H103.132" stroke="#282828" stroke-width="2.5" stroke-linecap="round" stroke-linejoin="round"/>
<path d="M74.4238 66.2363H103.132" stroke="#282828" stroke-width="2.5" stroke-linecap="round" stroke-linejoin="round"/>
<path d="M74.4238 79.1025H103.132" stroke="#282828" stroke-width="2.5" stroke-linecap="round" stroke-linejoin="round"/>
<path d="M44.7051 54.6436C46.8528 55.5844 48.7892 56.9175 50.4236 58.5526C53.8031 61.9314 55.8932 66.6005 55.8932 71.7576V74.2059H18.5439V71.7576C18.5439 64.1323 23.114 57.5748 29.6641 54.6738" stroke="#282828" stroke-width="2.5" stroke-linecap="round" stroke-linejoin="round"/>
<path d="M37.1709 57.9795C42.7919 57.9795 47.3487 53.4228 47.3487 47.8018C47.3487 42.1808 42.7919 37.624 37.1709 37.624C31.5499 37.624 26.9932 42.1808 26.9932 47.8018C26.9932 53.4228 31.5499 57.9795 37.1709 57.9795Z" stroke="#282828" stroke-width="2.5" stroke-linecap="round" stroke-linejoin="round"/>
<path d="M18.5439 81.9824H55.8939" stroke="#282828" stroke-width="2.5" stroke-linecap="round" stroke-linejoin="round"/>
</svg>
