<svg width="120" height="120" viewBox="0 0 120 120" fill="none" xmlns="http://www.w3.org/2000/svg">
<path d="M45.999 36.1506V69.192H117.412V27.853H45.999" stroke="#282828" stroke-width="2.5" stroke-linecap="round" stroke-linejoin="round"/>
<path d="M104.031 62.816C104.026 62.7108 104.022 62.6045 104.022 62.4972C104.022 58.8001 107.02 55.8022 110.717 55.8022C110.789 55.8022 110.859 55.8054 110.93 55.8075V41.2379C110.859 41.24 110.789 41.2432 110.717 41.2432C107.091 41.2432 104.14 38.3601 104.028 34.7607H59.3837C59.271 38.3601 56.3199 41.2432 52.694 41.2432C52.6228 41.2432 52.5526 41.24 52.4814 41.2379V55.8075C52.5526 55.8054 52.6228 55.8022 52.694 55.8022C56.3911 55.8022 59.389 58.8001 59.389 62.4972C59.389 62.6045 59.3858 62.7108 59.3805 62.816H104.03H104.031Z" stroke="#282828" stroke-width="2.5" stroke-linecap="round" stroke-linejoin="round"/>
<path d="M81.705 55.5898C85.6374 55.5898 88.8251 52.402 88.8251 48.4697C88.8251 44.5374 85.6374 41.3496 81.705 41.3496C77.7727 41.3496 74.585 44.5374 74.585 48.4697C74.585 52.402 77.7727 55.5898 81.705 55.5898Z" stroke="#282828" stroke-width="2.5" stroke-linecap="round" stroke-linejoin="round"/>
<path d="M38.507 27.8936H14.6611" stroke="#282828" stroke-width="2.5" stroke-linecap="round" stroke-linejoin="round"/>
<path d="M38.5066 35.7578H6.41309" stroke="#282828" stroke-width="2.5" stroke-linecap="round" stroke-linejoin="round"/>
<path d="M38.5075 43.6216H18.21" stroke="#282828" stroke-width="2.5" stroke-linecap="round" stroke-linejoin="round"/>
<path d="M45.9987 59.3091H25.7012" stroke="#282828" stroke-width="2.5" stroke-linecap="round" stroke-linejoin="round"/>
<path d="M38.5071 51.4858H2.58789" stroke="#282828" stroke-width="2.5" stroke-linecap="round" stroke-linejoin="round"/>
<path d="M99.0368 84.0849L89.0474 76.1699V80.816H64.3301V87.4048H89.0474V91.9999L99.0368 84.0849Z" stroke="#282828" stroke-width="2.5" stroke-linecap="round" stroke-linejoin="round"/>
</svg>
