<svg width="120" height="120" viewBox="0 0 120 120" fill="none" xmlns="http://www.w3.org/2000/svg">
<path d="M87.929 108.059H12.8762C9.07234 108.059 6 104.986 6 101.183V52.4641C6 48.6602 9.07234 45.5879 12.8762 45.5879H88.0753C91.8791 45.5879 94.9514 48.6602 94.9514 52.4641V101.183C94.8051 104.986 91.7328 108.059 87.929 108.059ZM12.8762 48.5139C10.6817 48.5139 8.92603 50.2695 8.92603 52.4641V101.183C8.92603 103.377 10.6817 105.133 12.8762 105.133H88.0753C90.2698 105.133 92.0254 103.377 92.0254 101.183V52.4641C92.0254 50.2695 90.2698 48.5139 88.0753 48.5139H12.8762Z" fill="#282828"/>
<path d="M65.6931 76.897C60.8652 76.897 56.915 72.9469 56.915 68.1189C56.915 63.291 60.8652 59.3408 65.6931 59.3408C70.5211 59.3408 74.4712 63.291 74.4712 68.1189C74.4712 72.9469 70.5211 76.897 65.6931 76.897ZM65.6931 62.2669C62.4745 62.2669 59.8411 64.9003 59.8411 68.1189C59.8411 71.3376 62.4745 73.971 65.6931 73.971C68.9118 73.971 71.5452 71.3376 71.5452 68.1189C71.5452 64.9003 68.9118 62.2669 65.6931 62.2669Z" fill="#282828"/>
<path d="M75.7847 76.897C73.4439 76.897 71.3957 76.0192 69.6401 74.4099C69.0549 73.8247 69.0549 72.9469 69.6401 72.3617C70.2253 71.7765 71.1031 71.7765 71.6883 72.3617C72.7124 73.3858 74.1754 73.971 75.7847 73.971C79.0034 73.971 81.6368 71.3376 81.6368 68.1189C81.6368 64.9003 79.0034 62.2669 75.7847 62.2669C74.3217 62.2669 72.8587 62.8521 71.6883 63.8762C71.1031 64.4614 70.2253 64.4614 69.6401 63.8762C69.0549 63.291 69.0549 62.4132 69.6401 61.828C71.2494 60.2186 73.4439 59.3408 75.7847 59.3408C80.6127 59.3408 84.5629 63.291 84.5629 68.1189C84.5629 72.9469 80.6127 76.897 75.7847 76.897Z" fill="#282828"/>
<path d="M82.9544 96.5012H75.493C74.6152 96.5012 74.03 95.916 74.03 95.0382C74.03 94.1604 74.6152 93.5752 75.493 93.5752H82.9544C83.8322 93.5752 84.4174 94.1604 84.4174 95.0382C84.4174 95.916 83.8322 96.5012 82.9544 96.5012ZM68.0316 96.5012H60.5702C59.6924 96.5012 59.1072 95.916 59.1072 95.0382C59.1072 94.1604 59.6924 93.5752 60.5702 93.5752H68.0316C68.9094 93.5752 69.4946 94.1604 69.4946 95.0382C69.4946 95.916 68.9094 96.5012 68.0316 96.5012ZM53.1088 96.5012H45.6474C44.7696 96.5012 44.1844 95.916 44.1844 95.0382C44.1844 94.1604 44.7696 93.5752 45.6474 93.5752H53.1088C53.9866 93.5752 54.5718 94.1604 54.5718 95.0382C54.5718 95.916 53.9866 96.5012 53.1088 96.5012ZM38.186 96.5012H30.7247C29.8468 96.5012 29.2616 95.916 29.2616 95.0382C29.2616 94.1604 29.8468 93.5752 30.7247 93.5752H38.186C39.0639 93.5752 39.6491 94.1604 39.6491 95.0382C39.6491 95.916 38.9176 96.5012 38.186 96.5012ZM23.2633 96.5012H15.8019C14.9241 96.5012 14.3389 95.916 14.3389 95.0382C14.3389 94.1604 14.9241 93.5752 15.8019 93.5752H23.2633C24.1411 93.5752 24.7263 94.1604 24.7263 95.0382C24.7263 95.916 23.9948 96.5012 23.2633 96.5012Z" fill="#282828"/>
<path d="M41.6977 66.948H20.045C19.1672 66.948 18.582 66.3628 18.582 65.485C18.582 64.6072 19.1672 64.022 20.045 64.022H41.6977C42.5755 64.022 43.1607 64.6072 43.1607 65.485C43.1607 66.3628 42.4292 66.948 41.6977 66.948Z" fill="#282828"/>
<path d="M35.9919 73.678H20.045C19.1672 73.678 18.582 73.0928 18.582 72.215C18.582 71.3372 19.1672 70.752 20.045 70.752H35.9919C36.8697 70.752 37.4549 71.3372 37.4549 72.215C37.4549 73.0928 36.7234 73.678 35.9919 73.678Z" fill="#282828"/>
<path d="M100.512 85.6749C100.22 85.6749 99.7806 85.6749 99.488 85.5286L93.197 84.5045C92.4655 84.3582 91.8803 83.6267 92.0266 82.8952C92.1729 82.1637 92.9044 81.5785 93.6359 81.7248L99.9269 82.7489C102.121 83.0415 104.023 81.5785 104.462 79.5303L112.07 31.397C112.216 30.3729 111.924 29.3488 111.338 28.471C110.753 27.5932 109.729 27.008 108.705 26.8617L34.53 15.1575C33.5059 15.0112 32.4818 15.3038 31.604 15.889C30.7262 16.4742 30.141 17.352 29.9947 18.5225L25.313 47.1976C25.1667 47.9291 24.4352 48.5143 23.7037 48.368C22.9722 48.2217 22.387 47.4902 22.5333 46.7587L27.0687 17.7909C27.6539 13.9871 31.1651 11.5 34.969 12.0852L109.144 23.7893C112.948 24.3745 115.435 27.8858 114.85 31.6896L107.242 79.8229C106.803 83.1878 103.731 85.6749 100.512 85.6749Z" fill="#282828"/>
<path d="M111.632 43.6861C111.485 43.6861 111.485 43.6861 111.339 43.6861L26.484 30.3726C25.7525 30.2263 25.1673 29.4948 25.3136 28.7633C25.4599 28.0318 26.1914 27.4466 26.9229 27.5929L111.778 40.9063C112.509 41.0526 113.095 41.7841 112.948 42.5157C113.095 43.1009 112.363 43.6861 111.632 43.6861Z" fill="#282828"/>
</svg>
