<svg width="104" height="114" viewBox="0 0 104 114" fill="none" xmlns="http://www.w3.org/2000/svg">
<path d="M44.3135 92.7051H32.1809H22.9102" stroke="#282828" stroke-width="2.5" stroke-linecap="round" stroke-linejoin="round"/>
<path d="M14.5898 66.0797V7.32179C14.5898 4.03216 17.2584 1.36365 20.548 1.36365H56.3658C59.6555 1.36365 62.324 4.03216 62.324 7.32179V56.427" stroke="#282828" stroke-width="2.5" stroke-linecap="round" stroke-linejoin="round"/>
<path d="M1.81836 112.102V68.854C1.81836 64.5292 4.00378 60.4942 7.62927 58.1293L13.8589 54.0668" stroke="#282828" stroke-width="2.5" stroke-linecap="round" stroke-linejoin="round"/>
<path d="M6.42383 82.767L22.3475 68.6607C24.3857 66.8572 27.4499 66.871 29.4742 68.6883C31.6459 70.6437 31.8437 73.9793 29.9251 76.1786L18.4643 89.3141C22.1358 90.7496 24.6479 94.1864 24.901 98.1202L25.0068 99.7581" stroke="#282828" stroke-width="2.5" stroke-linecap="round" stroke-linejoin="round"/>
<path d="M31.7651 99.6615C30.3848 104.759 25.7242 108.514 20.1893 108.514H18.832" stroke="#282828" stroke-width="2.5" stroke-linecap="round" stroke-linejoin="round"/>
<path d="M27.4414 106.071V106.075V112.102" stroke="#282828" stroke-width="2.5" stroke-linecap="round" stroke-linejoin="round"/>
<path d="M53.4635 89.0012L53.4819 89.0288L39.4952 61.5616C39.1409 60.8668 38.9707 60.1261 38.9707 59.3992C38.9707 57.6738 39.9139 56.0129 41.5564 55.171C43.889 53.9747 46.7508 54.8949 47.947 57.2322L55.3913 71.9274C54.195 69.5947 55.1198 66.7284 57.4524 65.5321C59.7897 64.3359 62.6514 65.2607 63.8477 67.5933L66.2907 72.3598C65.0945 70.0272 66.0147 67.1655 68.3519 65.9692C70.6846 64.773 73.5463 65.6932 74.7426 68.0304L76.4955 71.4489L77.0568 72.5485" stroke="#282828" stroke-width="2.5" stroke-linecap="round" stroke-linejoin="round"/>
<path d="M55.8962 112.102L54.1341 111.274C53.1127 110.796 52.1879 110.151 51.3874 109.378C50.5914 108.605 49.9151 107.699 49.3998 106.696C47.9367 103.844 47.8999 100.476 49.2986 97.5956L50.6742 94.7568" stroke="#282828" stroke-width="2.5" stroke-linecap="round" stroke-linejoin="round"/>
<path d="M102.182 106.291L100.581 100.122C99.7067 96.7492 98.4644 93.4872 96.8771 90.3862L89.8286 76.6249L84.9562 67.1103C83.76 64.7777 80.8983 63.8529 78.561 65.0491C76.2284 66.2454 75.3036 69.1071 76.4998 71.4444" stroke="#282828" stroke-width="2.5" stroke-linecap="round" stroke-linejoin="round"/>
<path d="M53.4629 89.0012L57.5209 96.9193" stroke="#282828" stroke-width="2.5" stroke-linecap="round" stroke-linejoin="round"/>
<path d="M55.3906 71.9272L59.2554 79.4681" stroke="#282828" stroke-width="2.5" stroke-linecap="round" stroke-linejoin="round"/>
<path d="M66.291 72.36L69.1758 77.9915" stroke="#282828" stroke-width="2.5" stroke-linecap="round" stroke-linejoin="round"/>
<path d="M77.0566 72.5485L78.8188 75.9853" stroke="#282828" stroke-width="2.5" stroke-linecap="round" stroke-linejoin="round"/>
<path d="M32.5078 21.0646H44.9123M32.5078 26.3895H44.9123M41.2947 40.2352L32.5078 31.7144H35.6089C42.5002 31.7144 42.5002 21.0646 35.6089 21.0646" stroke="#282828" stroke-width="2.5" stroke-linecap="round" stroke-linejoin="round"/>
</svg>
